<?xml version="1.0" standalone="no"?>
<!DOCTYPE svg PUBLIC "-//W3C//DTD SVG 20010904//EN"
 "http://www.w3.org/TR/2001/REC-SVG-20010904/DTD/svg10.dtd">
<svg version="1.0" xmlns="http://www.w3.org/2000/svg"
 width="282.000000pt" height="231.000000pt" viewBox="0 0 282.000000 231.000000"
 preserveAspectRatio="xMidYMid meet">

<g transform="translate(0.000000,231.000000) scale(0.100000,-0.100000)"
fill="white" stroke="none">
<path d="M1370 1744 c-255 -54 -452 -280 -468 -536 -4 -76 -3 -88 12 -94 17
-7 443 21 500 33 25 4 28 2 24 -13 -3 -11 -66 -109 -140 -219 -74 -110 -138
-205 -142 -212 -10 -17 55 -58 144 -89 63 -22 93 -27 185 -27 182 -2 301 46
426 172 238 238 236 589 -5 826 -144 141 -343 200 -536 159z m293 -54 c117
-36 246 -141 312 -254 62 -106 83 -282 50 -411 -61 -231 -288 -404 -534 -405
-104 0 -281 56 -281 90 0 13 37 13 45 1 3 -5 36 -20 73 -32 94 -32 241 -32
331 0 119 41 243 146 294 248 103 202 63 452 -97 608 -100 98 -220 145 -368
145 -260 0 -472 -187 -510 -450 -8 -53 -16 -80 -25 -80 -18 0 -17 59 2 139 53
222 228 383 465 425 48 9 180 -4 243 -24z m-104 -51 c81 -14 193 -64 245 -110
64 -55 121 -141 146 -218 31 -97 25 -237 -13 -323 -91 -203 -288 -314 -508
-287 -61 7 -179 50 -179 64 0 3 59 93 131 200 86 128 129 201 125 211 -5 14
-17 15 -69 10 -175 -19 -413 -33 -421 -26 -14 14 11 143 39 203 14 29 44 75
66 102 90 109 196 163 363 184 5 0 39 -4 75 -10z"/>
<path d="M1402 1608 c-16 -16 -15 -38 2 -38 18 0 39 27 31 40 -8 13 -18 13
-33 -2z"/>
<path d="M1496 1554 c-21 -21 -20 -40 4 -64 23 -23 33 -24 61 -10 22 12 26 59
7 78 -17 17 -54 15 -72 -4z"/>
<path d="M1682 1458 c-20 -20 -14 -40 11 -36 14 2 22 10 22 22 0 24 -16 31
-33 14z"/>
<path d="M1302 1428 c-16 -16 -15 -38 1 -38 7 0 18 5 25 12 16 16 15 38 -1 38
-7 0 -18 -5 -25 -12z"/>
<path d="M1780 1372 c-46 -37 9 -106 59 -75 22 14 25 57 6 77 -21 21 -38 20
-65 -2z"/>
<path d="M1450 1360 c-9 -16 -8 -22 5 -27 20 -7 50 20 41 36 -11 17 -34 13
-46 -9z"/>
<path d="M1133 1344 c-3 -8 -1 -20 4 -25 12 -12 48 14 39 29 -10 17 -36 15
-43 -4z"/>
<path d="M1581 1336 c-21 -26 -10 -69 22 -80 23 -8 31 -6 49 12 18 18 20 26
12 49 -7 21 -17 29 -40 31 -18 2 -36 -3 -43 -12z"/>
<path d="M1271 1286 c-21 -26 -10 -69 22 -80 23 -8 31 -6 49 12 18 18 20 26
12 49 -7 21 -17 29 -40 31 -18 2 -36 -3 -43 -12z"/>
<path d="M1785 1206 c-26 -19 -13 -51 15 -36 20 11 27 35 11 44 -4 3 -16 -1
-26 -8z"/>
<path d="M1597 1203 c-13 -12 -7 -43 8 -43 16 0 38 34 28 44 -8 8 -28 8 -36
-1z"/>
<path d="M1854 1155 c-15 -23 -15 -27 0 -50 20 -30 56 -33 79 -7 21 23 22 46
1 66 -24 24 -61 20 -80 -9z"/>
<path d="M1656 1124 c-32 -31 -11 -84 32 -84 35 0 52 16 52 50 0 14 -5 31 -12
38 -17 17 -54 15 -72 -4z"/>
<path d="M1505 1020 c-24 -27 -13 -68 22 -76 34 -9 57 6 61 40 6 53 -47 76
-83 36z"/>
<path d="M1797 1033 c-12 -11 -7 -43 6 -43 17 0 37 20 37 37 0 13 -32 18 -43
6z"/>
<path d="M1660 935 c-7 -8 -9 -22 -6 -32 6 -15 9 -15 28 4 11 12 17 26 14 32
-10 15 -21 14 -36 -4z"/>
<path d="M1614 842 c-6 -4 -14 -17 -18 -29 -8 -24 22 -63 49 -63 19 0 55 35
55 53 0 33 -57 58 -86 39z m36 -42 c0 -5 -2 -10 -4 -10 -3 0 -8 5 -11 10 -3 6
-1 10 4 10 6 0 11 -4 11 -10z"/>
<path d="M1318 829 c-22 -12 -23 -52 -2 -73 31 -32 84 -11 84 32 0 47 -39 66
-82 41z"/>
<path d="M1480 825 c-9 -11 -10 -19 -3 -26 14 -14 56 7 50 24 -6 19 -32 20
-47 2z"/>
<path d="M1190 1084 c-8 -2 -114 -11 -235 -19 -121 -9 -223 -19 -227 -21 -13
-8 -9 -67 8 -125 24 -83 83 -187 140 -249 48 -51 118 -101 127 -90 42 50 327
487 323 496 -5 13 -93 18 -136 8z m59 -66 c-6 -13 -42 -66 -78 -118 -37 -52
-82 -119 -100 -147 -20 -32 -40 -53 -51 -53 -46 0 -167 184 -184 277 -5 28 -2
33 17 37 25 6 264 22 350 24 57 2 58 2 46 -20z m-447 -59 c13 -73 74 -184 139
-251 44 -45 57 -64 49 -72 -17 -16 -138 115 -172 186 -31 64 -61 166 -52 180
12 19 29 0 36 -43z"/>
<path d="M1125 970 c-17 -18 -17 -20 -1 -26 20 -8 52 19 42 35 -10 16 -21 14
-41 -9z"/>
<path d="M905 960 c-17 -18 -17 -20 -1 -26 20 -8 52 19 42 35 -10 16 -21 14
-41 -9z"/>
<path d="M982 874 c-29 -20 -29 -59 2 -79 55 -37 109 41 54 79 -12 9 -25 16
-28 16 -3 0 -16 -7 -28 -16z m38 -44 c0 -5 -2 -10 -4 -10 -3 0 -8 5 -11 10 -3
6 -1 10 4 10 6 0 11 -4 11 -10z"/>
<path d="M671 376 c-52 -29 -68 -112 -30 -159 44 -57 158 -58 195 -1 36 53 12
144 -42 164 -35 14 -95 12 -123 -4z m107 -49 c15 -12 16 -79 0 -95 -17 -17
-64 -15 -82 4 -19 19 -21 64 -3 86 21 28 53 29 85 5z"/>
<path d="M1525 381 c-58 -24 -81 -103 -46 -158 40 -64 153 -67 200 -6 40 50
22 132 -36 162 -25 13 -89 14 -118 2z m109 -74 c14 -39 -10 -81 -47 -85 -39
-5 -57 14 -57 57 0 47 16 63 60 59 28 -2 37 -9 44 -31z"/>
<path d="M2026 369 c-50 -40 -26 -85 55 -103 36 -8 55 -18 57 -29 3 -13 -4
-17 -32 -17 -19 0 -38 5 -41 10 -3 6 -19 10 -36 10 -36 0 -39 -23 -5 -45 76
-50 202 -11 181 56 -9 27 -41 46 -92 54 -54 8 -60 35 -9 35 19 0 38 -4 41 -10
10 -16 55 -12 55 4 0 28 -50 56 -100 56 -33 0 -55 -6 -74 -21z"/>
<path d="M367 373 c-4 -3 -7 -48 -7 -100 l0 -93 29 0 c26 0 30 4 33 33 3 31 5
32 48 32 43 0 45 -1 48 -32 3 -29 7 -33 33 -33 l30 0 -3 98 -3 97 -27 3 c-24
3 -27 0 -30 -35 -3 -38 -3 -38 -48 -38 -45 0 -45 0 -48 38 -3 31 -7 37 -26 37
-12 0 -26 -3 -29 -7z"/>
<path d="M880 355 c0 -22 4 -25 35 -25 l35 0 0 -75 0 -75 30 0 30 0 0 74 0 75
33 3 c24 2 33 8 35 26 3 22 1 22 -97 22 l-101 0 0 -25z"/>
<path d="M1210 281 l0 -101 30 0 c28 0 30 3 30 35 0 35 0 35 45 35 45 0 45 0
45 -35 0 -32 2 -35 30 -35 l30 0 0 101 0 100 -27 -3 c-24 -3 -28 -8 -31 -40
-3 -38 -4 -38 -47 -38 -43 0 -44 0 -47 38 -3 32 -7 37 -30 40 l-28 3 0 -100z"/>
<path d="M1746 364 c-11 -28 -6 -104 8 -139 20 -47 79 -65 139 -44 54 18 68
47 65 129 -3 63 -4 65 -30 68 l-28 3 0 -68 c0 -76 -9 -93 -52 -93 -36 0 -48
24 -48 99 0 58 -1 61 -24 61 -13 0 -27 -7 -30 -16z"/>
<path d="M2248 358 c-13 -185 -17 -178 97 -178 l95 0 0 26 c0 24 -2 26 -47 24
-71 -4 -83 -1 -83 15 0 11 12 15 50 15 43 0 50 3 50 20 0 17 -7 20 -50 20 -38
0 -50 4 -50 15 0 12 14 15 65 15 63 0 65 1 65 25 0 25 0 25 -95 25 -91 0 -95
-1 -97 -22z"/>
</g>
</svg>
